<?xml version="1.0"?>
<svg xmlns="http://www.w3.org/2000/svg" xmlns:xlink="http://www.w3.org/1999/xlink" version="1.1" id="Layer_1" x="0px" y="0px" viewBox="0 0 505 505" style="enable-background:new 0 0 505 505;" xml:space="preserve" width="512px" height="512px" class=""><g><circle style="fill:#F9F1EE" cx="252.5" cy="252.5" r="252.5" data-original="#FFD05B" class="" data-old_color="#0E254C"/><polygon style="fill:#0E254C" points="121.1,383.9 121.1,362.2 149,362.2 149,342.5 121.1,342.5 121.1,308.6 149,308.6 149,288.9   121.1,288.9 121.1,255.1 149,255.1 149,235.4 121.1,235.4 121.1,201.5 149,201.5 149,181.8 121.1,181.8 121.1,148 149,148   149,128.3 121.1,128.3 121.1,101.4 101.4,101.4 101.4,403.6 403.6,403.6 403.6,383.9 " data-original="#FFFFFF" class="" data-old_color="#FFFFFF"/><g>
	<rect x="367.4" y="125.4" style="fill:#0E254C" width="36.2" height="233.2" data-original="#FD8469" class="active-path" data-old_color="#FFFFFF"/>
	<rect x="306.4" y="191.7" style="fill:#0E254C" width="36.2" height="166.9" data-original="#FD8469" class="active-path" data-old_color="#FFFFFF"/>
	<rect x="245.4" y="239.2" style="fill:#0E254C" width="36.2" height="119.4" data-original="#FD8469" class="active-path" data-old_color="#FFFFFF"/>
	<rect x="184.4" y="273.2" style="fill:#0E254C" width="36.2" height="85.4" data-original="#FD8469" class="active-path" data-old_color="#FFFFFF"/>
</g></g> </svg>
