<?xml version="1.0" encoding="utf-8"?>
<!-- Generator: Adobe Illustrator 21.0.0, SVG Export Plug-In . SVG Version: 6.00 Build 0)  -->
<svg version="1.1" id="Layer_1" xmlns="http://www.w3.org/2000/svg" xmlns:xlink="http://www.w3.org/1999/xlink" x="0px" y="0px"
	 viewBox="0 0 128 128" style="enable-background:new 0 0 128 128;" xml:space="preserve">
<style type="text/css">
	.st0{fill:#0E254C;}
	.st1{fill:#F9F1EE;}
</style>
<g id="Layer_1">
	<g>
		<path class="st0" d="M0,64.1C-0.1,28.8,28.5,0.1,63.9,0c35.3-0.1,64.1,28.5,64.1,63.9c0.1,35.4-28.5,64.1-63.9,64.1
			C28.8,128.1,0.1,99.5,0,64.1L0,64.1z"/>
		<path class="st0" d="M101.2,25.8H59.1c-0.6,0-1,0.5-1,1v36.8C57,63.2,55.8,63,54.7,63H36.1c-5.7,0-10.3,4.6-10.3,10.3v9.1
			c0,5.7,4.6,10.3,10.3,10.3h3.6l5.2,8.9c0.2,0.3,0.5,0.5,0.9,0.5c0.2,0,0.4,0,0.5-0.2c0.5-0.2,0.6-0.9,0.4-1.4l-5.8-10h-4.8
			c-4.6,0-8.3-3.7-8.3-8.3v-9.1c0-4.6,3.7-8.2,8.3-8.2h18.6c1.2,0,2.3,0.3,3.4,0.7v12.1c0,0.6,0.4,1,1,1H63v3.6
			c0,4.6-3.7,8.3-8.3,8.3h-7.7c-0.6,0-1,0.5-1,1c0,0.6,0.4,1,1,1h7.7c5.7,0,10.4-4.6,10.4-10.3v-3.6h36.2c0.6,0,1-0.5,1-1V26.8
			C102.2,26.3,101.7,25.8,101.2,25.8z M100.1,76.8H60.1v-49h40.1V76.8z M39.4,77.5c0,1-0.8,1.8-1.8,1.8c-1,0-1.8-0.8-1.8-1.8
			c0-1,0.8-1.8,1.8-1.8C38.6,75.7,39.4,76.5,39.4,77.5z M47.6,77.5L47.6,77.5c0,1-0.8,1.8-1.8,1.8c-1,0-1.8-0.8-1.8-1.8
			c0-1,0.8-1.8,1.8-1.8S47.6,76.5,47.6,77.5z M55.8,77.5c0,1-0.8,1.8-1.8,1.8c-1,0-1.8-0.8-1.8-1.8c0-1,0.8-1.8,1.8-1.8
			C54.9,75.7,55.8,76.5,55.8,77.5z M52.7,36C52.7,36,52.7,36,52.7,36c0,0.1,0,0.1,0,0.2c0,0.1,0,0.2-0.1,0.3c0,0.2-0.1,0.2-0.2,0.4
			l-4.7,4.7c-0.2,0.2-0.5,0.3-0.7,0.3c-0.3,0-0.5-0.1-0.7-0.3c-0.4-0.4-0.4-1.1,0-1.4l2.9-3h-3.4c-7.2,0-13,5.8-13,13
			c0,0.6-0.5,1-1,1s-1-0.5-1-1c0-8.3,6.7-15,15-15h3.4l-2.9-3c-0.4-0.4-0.4-1,0-1.4c0.4-0.4,1-0.4,1.4,0l4.7,4.7
			c0.1,0.1,0.2,0.2,0.2,0.3C52.6,35.8,52.7,35.8,52.7,36z M94.1,39.2c0,0.6-0.4,1-1,1H67.2c-0.6,0-1-0.5-1-1s0.4-1,1-1h25.9
			C93.6,38.2,94.1,38.7,94.1,39.2z M94.1,52.6c0,0.5-0.4,1-1,1H67.2c-0.5,0-1-0.5-1-1c0-0.6,0.4-1,1-1h25.9
			C93.6,51.6,94.1,52,94.1,52.6z M94.1,65.4c0,0.6-0.5,1-1,1H67.2c-0.6,0-1-0.5-1-1c0-0.5,0.4-1,1-1H93
			C93.6,64.4,94.1,64.8,94.1,65.4z"/>
	</g>
	<g>
		<path class="st1" d="M0,64.1C-0.1,28.8,28.5,0.1,63.9,0c35.3-0.1,64.1,28.5,64.1,63.9c0.1,35.4-28.5,64.1-63.9,64.1
			C28.8,128.1,0.1,99.5,0,64.1L0,64.1z"/>
		<path class="st0" d="M101.2,25.8H59.1c-0.6,0-1,0.5-1,1v36.8C57,63.2,55.8,63,54.7,63H36.1c-5.7,0-10.3,4.6-10.3,10.3v9.1
			c0,5.7,4.6,10.3,10.3,10.3h3.6l5.2,8.9c0.2,0.3,0.5,0.5,0.9,0.5c0.2,0,0.4,0,0.5-0.2c0.5-0.2,0.6-0.9,0.4-1.4l-5.8-10h-4.8
			c-4.6,0-8.3-3.7-8.3-8.3v-9.1c0-4.6,3.7-8.2,8.3-8.2h18.6c1.2,0,2.3,0.3,3.4,0.7v12.1c0,0.6,0.4,1,1,1H63v3.6
			c0,4.6-3.7,8.3-8.3,8.3h-7.7c-0.6,0-1,0.5-1,1c0,0.6,0.4,1,1,1h7.7c5.7,0,10.4-4.6,10.4-10.3v-3.6h36.2c0.6,0,1-0.5,1-1V26.8
			C102.2,26.3,101.7,25.8,101.2,25.8z M100.1,76.8H60.1v-49h40.1V76.8z M39.4,77.5c0,1-0.8,1.8-1.8,1.8c-1,0-1.8-0.8-1.8-1.8
			c0-1,0.8-1.8,1.8-1.8C38.6,75.7,39.4,76.5,39.4,77.5z M47.6,77.5L47.6,77.5c0,1-0.8,1.8-1.8,1.8c-1,0-1.8-0.8-1.8-1.8
			c0-1,0.8-1.8,1.8-1.8S47.6,76.5,47.6,77.5z M55.8,77.5c0,1-0.8,1.8-1.8,1.8c-1,0-1.8-0.8-1.8-1.8c0-1,0.8-1.8,1.8-1.8
			C54.9,75.7,55.8,76.5,55.8,77.5z M52.7,36C52.7,36,52.7,36,52.7,36c0,0.1,0,0.1,0,0.2c0,0.1,0,0.2-0.1,0.3c0,0.2-0.1,0.2-0.2,0.4
			l-4.7,4.7c-0.2,0.2-0.5,0.3-0.7,0.3c-0.3,0-0.5-0.1-0.7-0.3c-0.4-0.4-0.4-1.1,0-1.4l2.9-3h-3.4c-7.2,0-13,5.8-13,13
			c0,0.6-0.5,1-1,1s-1-0.5-1-1c0-8.3,6.7-15,15-15h3.4l-2.9-3c-0.4-0.4-0.4-1,0-1.4c0.4-0.4,1-0.4,1.4,0l4.7,4.7
			c0.1,0.1,0.2,0.2,0.2,0.3C52.6,35.8,52.7,35.8,52.7,36z M94.1,39.2c0,0.6-0.4,1-1,1H67.2c-0.6,0-1-0.5-1-1s0.4-1,1-1h25.9
			C93.6,38.2,94.1,38.7,94.1,39.2z M94.1,52.6c0,0.5-0.4,1-1,1H67.2c-0.5,0-1-0.5-1-1c0-0.6,0.4-1,1-1h25.9
			C93.6,51.6,94.1,52,94.1,52.6z M94.1,65.4c0,0.6-0.5,1-1,1H67.2c-0.6,0-1-0.5-1-1c0-0.5,0.4-1,1-1H93
			C93.6,64.4,94.1,64.8,94.1,65.4z"/>
	</g>
</g>
</svg>
